<svg width="84" height="94" viewBox="0 0 84 94" fill="none" xmlns="http://www.w3.org/2000/svg">
<path d="M61.5601 24.18V4.03998H71.8601C74.5101 4.03998 76.4801 4.51998 77.7901 5.48998C79.1001 6.45998 79.7501 7.72998 79.7501 9.29998C79.7501 10.34 79.4801 11.24 78.9301 12.02C78.3801 12.8 77.6201 13.41 76.6301 13.86C75.6401 14.31 74.4701 14.54 73.1001 14.54L73.6801 13.16C75.1001 13.16 76.3401 13.38 77.3901 13.81C78.4401 14.24 79.2601 14.87 79.8501 15.68C80.4401 16.49 80.7301 17.49 80.7301 18.66C80.7301 20.4 80.0301 21.76 78.6201 22.73C77.2101 23.7 75.1501 24.18 72.4501 24.18H61.5701H61.5601ZM67.2001 20.07H71.9801C72.9601 20.07 73.7001 19.9 74.2101 19.57C74.7201 19.24 74.9701 18.72 74.9701 18.03C74.9701 17.34 74.7101 16.83 74.2101 16.49C73.7101 16.15 72.9601 15.99 71.9801 15.99H66.8001V12.05H71.1201C72.0801 12.05 72.8001 11.89 73.2801 11.56C73.7601 11.23 74.0001 10.74 74.0001 10.09C74.0001 9.43998 73.7601 8.94998 73.2801 8.63998C72.8001 8.31998 72.0801 8.16998 71.1201 8.16998H67.2101V20.08L67.2001 20.07Z" fill="#446DE0"/>
<path d="M70.8899 47.15C69.28 47.15 67.79 46.89 66.43 46.37C65.07 45.85 63.88 45.12 62.88 44.17C61.87 43.22 61.0899 42.11 60.5299 40.85C59.9699 39.59 59.7 38.19 59.7 36.68C59.7 35.17 59.9799 33.77 60.5299 32.51C61.0899 31.25 61.87 30.14 62.88 29.19C63.89 28.24 65.07 27.51 66.43 26.99C67.79 26.47 69.28 26.21 70.8899 26.21C72.4999 26.21 74.01 26.47 75.36 26.99C76.71 27.51 77.8899 28.24 78.8899 29.19C79.8899 30.14 80.6699 31.25 81.2399 32.51C81.8099 33.78 82.0899 35.17 82.0899 36.68C82.0899 38.19 81.8099 39.59 81.2399 40.87C80.6699 42.15 79.8899 43.25 78.8899 44.19C77.8899 45.13 76.72 45.86 75.36 46.38C74 46.9 72.5199 47.16 70.8899 47.16V47.15ZM70.8899 42.43C71.66 42.43 72.3699 42.3 73.0299 42.03C73.6899 41.76 74.27 41.37 74.76 40.86C75.25 40.35 75.63 39.74 75.91 39.03C76.19 38.32 76.33 37.53 76.33 36.67C76.33 35.81 76.19 35 75.91 34.3C75.63 33.6 75.25 33 74.76 32.49C74.27 31.98 73.6999 31.59 73.0299 31.33C72.3699 31.06 71.65 30.93 70.8899 30.93C70.1299 30.93 69.41 31.06 68.75 31.33C68.09 31.6 67.5099 31.99 67.0199 32.49C66.5299 32.99 66.15 33.6 65.87 34.3C65.59 35 65.4499 35.79 65.4499 36.67C65.4499 37.55 65.59 38.32 65.87 39.03C66.15 39.74 66.5299 40.35 67.0199 40.86C67.5099 41.37 68.08 41.76 68.75 42.03C69.41 42.3 70.1299 42.43 70.8899 42.43Z" fill="#446DE0"/>
<path d="M71.1399 70.88C69.53 70.88 68.04 70.62 66.68 70.1C65.32 69.58 64.13 68.85 63.13 67.9C62.12 66.95 61.3399 65.84 60.7799 64.58C60.2199 63.32 59.95 61.92 59.95 60.41C59.95 58.9 60.2299 57.5 60.7799 56.24C61.3399 54.98 62.12 53.87 63.13 52.92C64.14 51.97 65.32 51.24 66.68 50.72C68.04 50.2 69.53 49.94 71.1399 49.94C72.7499 49.94 74.26 50.2 75.61 50.72C76.96 51.24 78.1399 51.97 79.1399 52.92C80.1399 53.87 80.9199 54.98 81.4899 56.24C82.0599 57.51 82.3399 58.9 82.3399 60.41C82.3399 61.92 82.0599 63.32 81.4899 64.6C80.9199 65.88 80.1399 66.98 79.1399 67.92C78.1399 68.86 76.97 69.59 75.61 70.11C74.25 70.63 72.7699 70.89 71.1399 70.89V70.88ZM71.1399 66.16C71.91 66.16 72.6199 66.03 73.2799 65.76C73.9399 65.49 74.52 65.1 75.01 64.59C75.5 64.08 75.88 63.47 76.16 62.76C76.44 62.05 76.58 61.26 76.58 60.4C76.58 59.54 76.44 58.73 76.16 58.03C75.88 57.33 75.5 56.73 75.01 56.22C74.52 55.71 73.9499 55.32 73.2799 55.06C72.6199 54.79 71.9 54.66 71.1399 54.66C70.3799 54.66 69.66 54.79 69 55.06C68.34 55.33 67.7599 55.72 67.2699 56.22C66.7799 56.72 66.4 57.33 66.12 58.03C65.84 58.73 65.6999 59.52 65.6999 60.4C65.6999 61.28 65.84 62.05 66.12 62.76C66.4 63.47 66.7799 64.08 67.2699 64.59C67.7599 65.1 68.33 65.49 69 65.76C69.66 66.03 70.3799 66.16 71.1399 66.16Z" fill="#446DE0"/>
<path d="M63.3599 93.75V73.61H68.9999V93.75H63.3599ZM68.4499 89.29L68.1299 82.9L76.7899 73.61H83.0599L74.4299 82.96L71.2699 86.27L68.4499 89.29ZM76.8799 93.75L70.3199 85.43L74.0299 81.46L83.4999 93.75H76.8799Z" fill="#446DE0"/>
<path d="M0 83.6L22.41 93.39L58.95 9.79L36.54 0L0 83.6ZM38.42 4.82L54.12 11.68L20.52 88.57L4.82 81.71L38.42 4.82Z" fill="#446DE0"/>
<path d="M42.5222 13.6832L38.738 12.0039L10.5515 75.5207L14.3356 77.1999L42.5222 13.6832Z" fill="#446DE0"/>
<path d="M48.8867 16.5137L45.1025 14.8345L16.916 78.3512L20.7001 80.0305L48.8867 16.5137Z" fill="#446DE0"/>
</svg>
